<?xml version="1.0" encoding="utf-8" standalone="no"?>
<!DOCTYPE svg PUBLIC "-//W3C//DTD SVG 1.1//EN"
  "http://www.w3.org/Graphics/SVG/1.1/DTD/svg11.dtd">
<svg xmlns:xlink="http://www.w3.org/1999/xlink" width="1080pt" height="576pt" viewBox="0 0 1080 576" xmlns="http://www.w3.org/2000/svg" version="1.1">
 <metadata>
  <rdf:RDF xmlns:dc="http://purl.org/dc/elements/1.1/" xmlns:cc="http://creativecommons.org/ns#" xmlns:rdf="http://www.w3.org/1999/02/22-rdf-syntax-ns#">
   <cc:Work>
    <dc:type rdf:resource="http://purl.org/dc/dcmitype/StillImage"/>
    <dc:date>2025-04-10T11:35:49.630528</dc:date>
    <dc:format>image/svg+xml</dc:format>
    <dc:creator>
     <cc:Agent>
      <dc:title>Matplotlib v3.9.2, https://matplotlib.org/</dc:title>
     </cc:Agent>
    </dc:creator>
   </cc:Work>
  </rdf:RDF>
 </metadata>
 <defs>
  <style type="text/css">*{stroke-linejoin: round; stroke-linecap: butt}</style>
 </defs>
 <g id="figure_1">
  <g id="patch_1">
   <path d="M 0 576 
L 1080 576 
L 1080 0 
L 0 0 
z
" style="fill: #ffffff"/>
  </g>
  <g id="axes_1">
   <g id="patch_2">
    <path d="M 200.944456 517.979766 
L 991.318249 517.979766 
L 991.318249 10.8 
L 200.944456 10.8 
z
" style="fill: #ffffff"/>
   </g>
   <g id="matplotlib.axis_1">
    <g id="xtick_1">
     <g id="line2d_1">
      <defs>
       <path id="mb760fb104c" d="M 0 0 
L 0 3.5 
" style="stroke: #000000; stroke-width: 0.8"/>
      </defs>
      <g>
       <use xlink:href="#mb760fb104c" x="200.944456" y="517.979766" style="stroke: #000000; stroke-width: 0.8"/>
      </g>
     </g>
     <g id="text_1">
      <!-- 2025-01 -->
      <g transform="translate(166.827438 563.389365) rotate(-45) scale(0.11 -0.11)">
       <defs>
        <path id="DejaVuSans-32" d="M 1228 531 
L 3431 531 
L 3431 0 
L 469 0 
L 469 531 
Q 828 903 1448 1529 
Q 2069 2156 2228 2338 
Q 2531 2678 2651 2914 
Q 2772 3150 2772 3378 
Q 2772 3750 2511 3984 
Q 2250 4219 1831 4219 
Q 1534 4219 1204 4116 
Q 875 4013 500 3803 
L 500 4441 
Q 881 4594 1212 4672 
Q 1544 4750 1819 4750 
Q 2544 4750 2975 4387 
Q 3406 4025 3406 3419 
Q 3406 3131 3298 2873 
Q 3191 2616 2906 2266 
Q 2828 2175 2409 1742 
Q 1991 1309 1228 531 
z
" transform="scale(0.015625)"/>
        <path id="DejaVuSans-30" d="M 2034 4250 
Q 1547 4250 1301 3770 
Q 1056 3291 1056 2328 
Q 1056 1369 1301 889 
Q 1547 409 2034 409 
Q 2525 409 2770 889 
Q 3016 1369 3016 2328 
Q 3016 3291 2770 3770 
Q 2525 4250 2034 4250 
z
M 2034 4750 
Q 2819 4750 3233 4129 
Q 3647 3509 3647 2328 
Q 3647 1150 3233 529 
Q 2819 -91 2034 -91 
Q 1250 -91 836 529 
Q 422 1150 422 2328 
Q 422 3509 836 4129 
Q 1250 4750 2034 4750 
z
" transform="scale(0.015625)"/>
        <path id="DejaVuSans-35" d="M 691 4666 
L 3169 4666 
L 3169 4134 
L 1269 4134 
L 1269 2991 
Q 1406 3038 1543 3061 
Q 1681 3084 1819 3084 
Q 2600 3084 3056 2656 
Q 3513 2228 3513 1497 
Q 3513 744 3044 326 
Q 2575 -91 1722 -91 
Q 1428 -91 1123 -41 
Q 819 9 494 109 
L 494 744 
Q 775 591 1075 516 
Q 1375 441 1709 441 
Q 2250 441 2565 725 
Q 2881 1009 2881 1497 
Q 2881 1984 2565 2268 
Q 2250 2553 1709 2553 
Q 1456 2553 1204 2497 
Q 953 2441 691 2322 
L 691 4666 
z
" transform="scale(0.015625)"/>
        <path id="DejaVuSans-2d" d="M 313 2009 
L 1997 2009 
L 1997 1497 
L 313 1497 
L 313 2009 
z
" transform="scale(0.015625)"/>
        <path id="DejaVuSans-31" d="M 794 531 
L 1825 531 
L 1825 4091 
L 703 3866 
L 703 4441 
L 1819 4666 
L 2450 4666 
L 2450 531 
L 3481 531 
L 3481 0 
L 794 0 
L 794 531 
z
" transform="scale(0.015625)"/>
       </defs>
       <use xlink:href="#DejaVuSans-32"/>
       <use xlink:href="#DejaVuSans-30" x="63.623047"/>
       <use xlink:href="#DejaVuSans-32" x="127.246094"/>
       <use xlink:href="#DejaVuSans-35" x="190.869141"/>
       <use xlink:href="#DejaVuSans-2d" x="254.492188"/>
       <use xlink:href="#DejaVuSans-30" x="290.576172"/>
       <use xlink:href="#DejaVuSans-31" x="354.199219"/>
      </g>
     </g>
    </g>
    <g id="xtick_2">
     <g id="line2d_2">
      <g>
       <use xlink:href="#mb760fb104c" x="460.90825" y="517.979766" style="stroke: #000000; stroke-width: 0.8"/>
      </g>
     </g>
     <g id="text_2">
      <!-- 2025-02 -->
      <g transform="translate(426.791232 563.389365) rotate(-45) scale(0.11 -0.11)">
       <use xlink:href="#DejaVuSans-32"/>
       <use xlink:href="#DejaVuSans-30" x="63.623047"/>
       <use xlink:href="#DejaVuSans-32" x="127.246094"/>
       <use xlink:href="#DejaVuSans-35" x="190.869141"/>
       <use xlink:href="#DejaVuSans-2d" x="254.492188"/>
       <use xlink:href="#DejaVuSans-30" x="290.576172"/>
       <use xlink:href="#DejaVuSans-32" x="354.199219"/>
      </g>
     </g>
    </g>
    <g id="xtick_3">
     <g id="line2d_3">
      <g>
       <use xlink:href="#mb760fb104c" x="695.714258" y="517.979766" style="stroke: #000000; stroke-width: 0.8"/>
      </g>
     </g>
     <g id="text_3">
      <!-- 2025-03 -->
      <g transform="translate(661.597239 563.389365) rotate(-45) scale(0.11 -0.11)">
       <defs>
        <path id="DejaVuSans-33" d="M 2597 2516 
Q 3050 2419 3304 2112 
Q 3559 1806 3559 1356 
Q 3559 666 3084 287 
Q 2609 -91 1734 -91 
Q 1441 -91 1130 -33 
Q 819 25 488 141 
L 488 750 
Q 750 597 1062 519 
Q 1375 441 1716 441 
Q 2309 441 2620 675 
Q 2931 909 2931 1356 
Q 2931 1769 2642 2001 
Q 2353 2234 1838 2234 
L 1294 2234 
L 1294 2753 
L 1863 2753 
Q 2328 2753 2575 2939 
Q 2822 3125 2822 3475 
Q 2822 3834 2567 4026 
Q 2313 4219 1838 4219 
Q 1578 4219 1281 4162 
Q 984 4106 628 3988 
L 628 4550 
Q 988 4650 1302 4700 
Q 1616 4750 1894 4750 
Q 2613 4750 3031 4423 
Q 3450 4097 3450 3541 
Q 3450 3153 3228 2886 
Q 3006 2619 2597 2516 
z
" transform="scale(0.015625)"/>
       </defs>
       <use xlink:href="#DejaVuSans-32"/>
       <use xlink:href="#DejaVuSans-30" x="63.623047"/>
       <use xlink:href="#DejaVuSans-32" x="127.246094"/>
       <use xlink:href="#DejaVuSans-35" x="190.869141"/>
       <use xlink:href="#DejaVuSans-2d" x="254.492188"/>
       <use xlink:href="#DejaVuSans-30" x="290.576172"/>
       <use xlink:href="#DejaVuSans-33" x="354.199219"/>
      </g>
     </g>
    </g>
    <g id="xtick_4">
     <g id="line2d_4">
      <g>
       <use xlink:href="#mb760fb104c" x="955.678052" y="517.979766" style="stroke: #000000; stroke-width: 0.8"/>
      </g>
     </g>
     <g id="text_4">
      <!-- 2025-04 -->
      <g transform="translate(921.561033 563.389365) rotate(-45) scale(0.11 -0.11)">
       <defs>
        <path id="DejaVuSans-34" d="M 2419 4116 
L 825 1625 
L 2419 1625 
L 2419 4116 
z
M 2253 4666 
L 3047 4666 
L 3047 1625 
L 3713 1625 
L 3713 1100 
L 3047 1100 
L 3047 0 
L 2419 0 
L 2419 1100 
L 313 1100 
L 313 1709 
L 2253 4666 
z
" transform="scale(0.015625)"/>
       </defs>
       <use xlink:href="#DejaVuSans-32"/>
       <use xlink:href="#DejaVuSans-30" x="63.623047"/>
       <use xlink:href="#DejaVuSans-32" x="127.246094"/>
       <use xlink:href="#DejaVuSans-35" x="190.869141"/>
       <use xlink:href="#DejaVuSans-2d" x="254.492188"/>
       <use xlink:href="#DejaVuSans-30" x="290.576172"/>
       <use xlink:href="#DejaVuSans-34" x="354.199219"/>
      </g>
     </g>
    </g>
   </g>
   <g id="matplotlib.axis_2"/>
   <g id="line2d_5">
    <defs>
     <path id="me504c4042c" d="M 0 6 
C 1.591219 6 3.117479 5.367802 4.242641 4.242641 
C 5.367802 3.117479 6 1.591219 6 0 
C 6 -1.591219 5.367802 -3.117479 4.242641 -4.242641 
C 3.117479 -5.367802 1.591219 -6 0 -6 
C -1.591219 -6 -3.117479 -5.367802 -4.242641 -4.242641 
C -5.367802 -3.117479 -6 -1.591219 -6 0 
C -6 1.591219 -5.367802 3.117479 -4.242641 4.242641 
C -3.117479 5.367802 -1.591219 6 0 6 
z
" style="stroke: #00263c"/>
    </defs>
    <g clip-path="url(#pd9b1350dde)">
     <use xlink:href="#me504c4042c" x="955.678052" y="486.281031" style="fill: #00263c; stroke: #00263c"/>
    </g>
   </g>
   <g id="line2d_6">
    <g clip-path="url(#pd9b1350dde)">
     <use xlink:href="#me504c4042c" x="955.678052" y="422.88356" style="fill: #00263c; stroke: #00263c"/>
    </g>
   </g>
   <g id="line2d_7">
    <g clip-path="url(#pd9b1350dde)">
     <use xlink:href="#me504c4042c" x="477.680108" y="359.486089" style="fill: #00263c; stroke: #00263c"/>
    </g>
   </g>
   <g id="line2d_8">
    <g clip-path="url(#pd9b1350dde)">
     <use xlink:href="#me504c4042c" x="888.590621" y="359.486089" style="fill: #00263c; stroke: #00263c"/>
    </g>
   </g>
   <g id="line2d_9">
    <g clip-path="url(#pd9b1350dde)">
     <use xlink:href="#me504c4042c" x="360.277104" y="296.088619" style="fill: #00263c; stroke: #00263c"/>
    </g>
   </g>
   <g id="line2d_10">
    <g clip-path="url(#pd9b1350dde)">
     <use xlink:href="#me504c4042c" x="595.083112" y="296.088619" style="fill: #00263c; stroke: #00263c"/>
    </g>
   </g>
   <g id="line2d_11">
    <g clip-path="url(#pd9b1350dde)">
     <use xlink:href="#me504c4042c" x="595.083112" y="296.088619" style="fill: #00263c; stroke: #00263c"/>
    </g>
   </g>
   <g id="line2d_12">
    <g clip-path="url(#pd9b1350dde)">
     <use xlink:href="#me504c4042c" x="418.978606" y="232.691148" style="fill: #00263c; stroke: #00263c"/>
    </g>
   </g>
   <g id="line2d_13">
    <g clip-path="url(#pd9b1350dde)">
     <use xlink:href="#me504c4042c" x="595.083112" y="232.691148" style="fill: #00263c; stroke: #00263c"/>
    </g>
   </g>
   <g id="line2d_14">
    <g clip-path="url(#pd9b1350dde)">
     <use xlink:href="#me504c4042c" x="829.889119" y="232.691148" style="fill: #00263c; stroke: #00263c"/>
    </g>
   </g>
   <g id="line2d_15">
    <g clip-path="url(#pd9b1350dde)">
     <use xlink:href="#me504c4042c" x="888.590621" y="169.293677" style="fill: #00263c; stroke: #00263c"/>
    </g>
   </g>
   <g id="line2d_16">
    <g clip-path="url(#pd9b1350dde)">
     <use xlink:href="#me504c4042c" x="905.362479" y="169.293677" style="fill: #00263c; stroke: #00263c"/>
    </g>
   </g>
   <g id="line2d_17">
    <g clip-path="url(#pd9b1350dde)">
     <use xlink:href="#me504c4042c" x="947.292123" y="169.293677" style="fill: #00263c; stroke: #00263c"/>
    </g>
   </g>
   <g id="line2d_18">
    <g clip-path="url(#pd9b1350dde)">
     <use xlink:href="#me504c4042c" x="242.8741" y="105.896206" style="fill: #00263c; stroke: #00263c"/>
    </g>
   </g>
   <g id="line2d_19">
    <g clip-path="url(#pd9b1350dde)">
     <use xlink:href="#me504c4042c" x="259.645958" y="105.896206" style="fill: #00263c; stroke: #00263c"/>
    </g>
   </g>
   <g id="line2d_20">
    <g clip-path="url(#pd9b1350dde)">
     <use xlink:href="#me504c4042c" x="301.575602" y="105.896206" style="fill: #00263c; stroke: #00263c"/>
    </g>
   </g>
   <g id="line2d_21">
    <g clip-path="url(#pd9b1350dde)">
     <use xlink:href="#me504c4042c" x="318.34746" y="105.896206" style="fill: #00263c; stroke: #00263c"/>
    </g>
   </g>
   <g id="line2d_22">
    <g clip-path="url(#pd9b1350dde)">
     <use xlink:href="#me504c4042c" x="360.277104" y="105.896206" style="fill: #00263c; stroke: #00263c"/>
    </g>
   </g>
   <g id="line2d_23">
    <g clip-path="url(#pd9b1350dde)">
     <use xlink:href="#me504c4042c" x="377.048962" y="105.896206" style="fill: #00263c; stroke: #00263c"/>
    </g>
   </g>
   <g id="line2d_24">
    <g clip-path="url(#pd9b1350dde)">
     <use xlink:href="#me504c4042c" x="242.8741" y="42.498735" style="fill: #00263c; stroke: #00263c"/>
    </g>
   </g>
   <g id="line2d_25">
    <g clip-path="url(#pd9b1350dde)">
     <use xlink:href="#me504c4042c" x="259.645958" y="42.498735" style="fill: #00263c; stroke: #00263c"/>
    </g>
   </g>
   <g id="line2d_26">
    <g clip-path="url(#pd9b1350dde)">
     <use xlink:href="#me504c4042c" x="301.575602" y="42.498735" style="fill: #00263c; stroke: #00263c"/>
    </g>
   </g>
   <g id="line2d_27">
    <g clip-path="url(#pd9b1350dde)">
     <use xlink:href="#me504c4042c" x="318.34746" y="42.498735" style="fill: #00263c; stroke: #00263c"/>
    </g>
   </g>
   <g id="line2d_28">
    <g clip-path="url(#pd9b1350dde)">
     <use xlink:href="#me504c4042c" x="360.277104" y="42.498735" style="fill: #00263c; stroke: #00263c"/>
    </g>
   </g>
   <g id="line2d_29">
    <g clip-path="url(#pd9b1350dde)">
     <use xlink:href="#me504c4042c" x="377.048962" y="42.498735" style="fill: #00263c; stroke: #00263c"/>
    </g>
   </g>
   <g id="line2d_30">
    <path d="M 200.944456 486.281031 
L 991.318249 486.281031 
" clip-path="url(#pd9b1350dde)" style="fill: none; stroke: #808080; stroke-opacity: 0.5; stroke-width: 0.5; stroke-linecap: square"/>
   </g>
   <g id="line2d_31">
    <path d="M 200.944456 422.88356 
L 991.318249 422.88356 
" clip-path="url(#pd9b1350dde)" style="fill: none; stroke: #808080; stroke-opacity: 0.5; stroke-width: 0.5; stroke-linecap: square"/>
   </g>
   <g id="line2d_32">
    <path d="M 200.944456 359.486089 
L 991.318249 359.486089 
" clip-path="url(#pd9b1350dde)" style="fill: none; stroke: #808080; stroke-opacity: 0.5; stroke-width: 0.5; stroke-linecap: square"/>
   </g>
   <g id="line2d_33">
    <path d="M 200.944456 296.088619 
L 991.318249 296.088619 
" clip-path="url(#pd9b1350dde)" style="fill: none; stroke: #808080; stroke-opacity: 0.5; stroke-width: 0.5; stroke-linecap: square"/>
   </g>
   <g id="line2d_34">
    <path d="M 200.944456 232.691148 
L 991.318249 232.691148 
" clip-path="url(#pd9b1350dde)" style="fill: none; stroke: #808080; stroke-opacity: 0.5; stroke-width: 0.5; stroke-linecap: square"/>
   </g>
   <g id="line2d_35">
    <path d="M 200.944456 169.293677 
L 991.318249 169.293677 
" clip-path="url(#pd9b1350dde)" style="fill: none; stroke: #808080; stroke-opacity: 0.5; stroke-width: 0.5; stroke-linecap: square"/>
   </g>
   <g id="line2d_36">
    <path d="M 200.944456 105.896206 
L 991.318249 105.896206 
" clip-path="url(#pd9b1350dde)" style="fill: none; stroke: #808080; stroke-opacity: 0.5; stroke-width: 0.5; stroke-linecap: square"/>
   </g>
   <g id="line2d_37">
    <path d="M 200.944456 42.498735 
L 991.318249 42.498735 
" clip-path="url(#pd9b1350dde)" style="fill: none; stroke: #808080; stroke-opacity: 0.5; stroke-width: 0.5; stroke-linecap: square"/>
   </g>
   <g id="line2d_38">
    <path d="M 200.944456 517.979766 
L 991.318249 517.979766 
" clip-path="url(#pd9b1350dde)" style="fill: none; stroke: #000000; stroke-linecap: square"/>
   </g>
   <g id="patch_3">
    <path d="M 200.944456 517.979766 
L 200.944456 10.8 
" style="fill: none; stroke: #000000; stroke-width: 0.8; stroke-linejoin: miter; stroke-linecap: square"/>
   </g>
   <g id="patch_4">
    <path d="M 991.318249 517.979766 
L 991.318249 10.8 
" style="fill: none; stroke: #000000; stroke-width: 0.8; stroke-linejoin: miter; stroke-linecap: square"/>
   </g>
   <g id="patch_5">
    <path d="M 200.944456 517.979766 
L 991.318249 517.979766 
" style="fill: none; stroke: #000000; stroke-width: 0.8; stroke-linejoin: miter; stroke-linecap: square"/>
   </g>
   <g id="patch_6">
    <path d="M 200.944456 10.8 
L 991.318249 10.8 
" style="fill: none; stroke: #000000; stroke-width: 0.8; stroke-linejoin: miter; stroke-linecap: square"/>
   </g>
   <g id="text_5">
    <!-- EAN 7896034610031 -->
    <g transform="translate(14.405454 489.592281) scale(0.12 -0.12)">
     <defs>
      <path id="DejaVuSans-45" d="M 628 4666 
L 3578 4666 
L 3578 4134 
L 1259 4134 
L 1259 2753 
L 3481 2753 
L 3481 2222 
L 1259 2222 
L 1259 531 
L 3634 531 
L 3634 0 
L 628 0 
L 628 4666 
z
" transform="scale(0.015625)"/>
      <path id="DejaVuSans-41" d="M 2188 4044 
L 1331 1722 
L 3047 1722 
L 2188 4044 
z
M 1831 4666 
L 2547 4666 
L 4325 0 
L 3669 0 
L 3244 1197 
L 1141 1197 
L 716 0 
L 50 0 
L 1831 4666 
z
" transform="scale(0.015625)"/>
      <path id="DejaVuSans-4e" d="M 628 4666 
L 1478 4666 
L 3547 763 
L 3547 4666 
L 4159 4666 
L 4159 0 
L 3309 0 
L 1241 3903 
L 1241 0 
L 628 0 
L 628 4666 
z
" transform="scale(0.015625)"/>
      <path id="DejaVuSans-20" transform="scale(0.015625)"/>
      <path id="DejaVuSans-37" d="M 525 4666 
L 3525 4666 
L 3525 4397 
L 1831 0 
L 1172 0 
L 2766 4134 
L 525 4134 
L 525 4666 
z
" transform="scale(0.015625)"/>
      <path id="DejaVuSans-38" d="M 2034 2216 
Q 1584 2216 1326 1975 
Q 1069 1734 1069 1313 
Q 1069 891 1326 650 
Q 1584 409 2034 409 
Q 2484 409 2743 651 
Q 3003 894 3003 1313 
Q 3003 1734 2745 1975 
Q 2488 2216 2034 2216 
z
M 1403 2484 
Q 997 2584 770 2862 
Q 544 3141 544 3541 
Q 544 4100 942 4425 
Q 1341 4750 2034 4750 
Q 2731 4750 3128 4425 
Q 3525 4100 3525 3541 
Q 3525 3141 3298 2862 
Q 3072 2584 2669 2484 
Q 3125 2378 3379 2068 
Q 3634 1759 3634 1313 
Q 3634 634 3220 271 
Q 2806 -91 2034 -91 
Q 1263 -91 848 271 
Q 434 634 434 1313 
Q 434 1759 690 2068 
Q 947 2378 1403 2484 
z
M 1172 3481 
Q 1172 3119 1398 2916 
Q 1625 2713 2034 2713 
Q 2441 2713 2670 2916 
Q 2900 3119 2900 3481 
Q 2900 3844 2670 4047 
Q 2441 4250 2034 4250 
Q 1625 4250 1398 4047 
Q 1172 3844 1172 3481 
z
" transform="scale(0.015625)"/>
      <path id="DejaVuSans-39" d="M 703 97 
L 703 672 
Q 941 559 1184 500 
Q 1428 441 1663 441 
Q 2288 441 2617 861 
Q 2947 1281 2994 2138 
Q 2813 1869 2534 1725 
Q 2256 1581 1919 1581 
Q 1219 1581 811 2004 
Q 403 2428 403 3163 
Q 403 3881 828 4315 
Q 1253 4750 1959 4750 
Q 2769 4750 3195 4129 
Q 3622 3509 3622 2328 
Q 3622 1225 3098 567 
Q 2575 -91 1691 -91 
Q 1453 -91 1209 -44 
Q 966 3 703 97 
z
M 1959 2075 
Q 2384 2075 2632 2365 
Q 2881 2656 2881 3163 
Q 2881 3666 2632 3958 
Q 2384 4250 1959 4250 
Q 1534 4250 1286 3958 
Q 1038 3666 1038 3163 
Q 1038 2656 1286 2365 
Q 1534 2075 1959 2075 
z
" transform="scale(0.015625)"/>
      <path id="DejaVuSans-36" d="M 2113 2584 
Q 1688 2584 1439 2293 
Q 1191 2003 1191 1497 
Q 1191 994 1439 701 
Q 1688 409 2113 409 
Q 2538 409 2786 701 
Q 3034 994 3034 1497 
Q 3034 2003 2786 2293 
Q 2538 2584 2113 2584 
z
M 3366 4563 
L 3366 3988 
Q 3128 4100 2886 4159 
Q 2644 4219 2406 4219 
Q 1781 4219 1451 3797 
Q 1122 3375 1075 2522 
Q 1259 2794 1537 2939 
Q 1816 3084 2150 3084 
Q 2853 3084 3261 2657 
Q 3669 2231 3669 1497 
Q 3669 778 3244 343 
Q 2819 -91 2113 -91 
Q 1303 -91 875 529 
Q 447 1150 447 2328 
Q 447 3434 972 4092 
Q 1497 4750 2381 4750 
Q 2619 4750 2861 4703 
Q 3103 4656 3366 4563 
z
" transform="scale(0.015625)"/>
     </defs>
     <use xlink:href="#DejaVuSans-45"/>
     <use xlink:href="#DejaVuSans-41" x="63.183594"/>
     <use xlink:href="#DejaVuSans-4e" x="131.591797"/>
     <use xlink:href="#DejaVuSans-20" x="206.396484"/>
     <use xlink:href="#DejaVuSans-37" x="238.183594"/>
     <use xlink:href="#DejaVuSans-38" x="301.806641"/>
     <use xlink:href="#DejaVuSans-39" x="365.429688"/>
     <use xlink:href="#DejaVuSans-36" x="429.052734"/>
     <use xlink:href="#DejaVuSans-30" x="492.675781"/>
     <use xlink:href="#DejaVuSans-33" x="556.298828"/>
     <use xlink:href="#DejaVuSans-34" x="619.921875"/>
     <use xlink:href="#DejaVuSans-36" x="683.544922"/>
     <use xlink:href="#DejaVuSans-31" x="747.167969"/>
     <use xlink:href="#DejaVuSans-30" x="810.791016"/>
     <use xlink:href="#DejaVuSans-30" x="874.414062"/>
     <use xlink:href="#DejaVuSans-33" x="938.037109"/>
     <use xlink:href="#DejaVuSans-31" x="1001.660156"/>
    </g>
   </g>
   <g id="text_6">
    <!-- OLT 090 -->
    <g transform="translate(1014.379554 489.592281) scale(0.12 -0.12)">
     <defs>
      <path id="DejaVuSans-Bold-4f" d="M 2719 3878 
Q 2169 3878 1866 3472 
Q 1563 3066 1563 2328 
Q 1563 1594 1866 1187 
Q 2169 781 2719 781 
Q 3272 781 3575 1187 
Q 3878 1594 3878 2328 
Q 3878 3066 3575 3472 
Q 3272 3878 2719 3878 
z
M 2719 4750 
Q 3844 4750 4481 4106 
Q 5119 3463 5119 2328 
Q 5119 1197 4481 553 
Q 3844 -91 2719 -91 
Q 1597 -91 958 553 
Q 319 1197 319 2328 
Q 319 3463 958 4106 
Q 1597 4750 2719 4750 
z
" transform="scale(0.015625)"/>
      <path id="DejaVuSans-Bold-4c" d="M 588 4666 
L 1791 4666 
L 1791 909 
L 3903 909 
L 3903 0 
L 588 0 
L 588 4666 
z
" transform="scale(0.015625)"/>
      <path id="DejaVuSans-Bold-54" d="M 31 4666 
L 4331 4666 
L 4331 3756 
L 2784 3756 
L 2784 0 
L 1581 0 
L 1581 3756 
L 31 3756 
L 31 4666 
z
" transform="scale(0.015625)"/>
      <path id="DejaVuSans-Bold-20" transform="scale(0.015625)"/>
      <path id="DejaVuSans-Bold-30" d="M 2944 2338 
Q 2944 3213 2780 3570 
Q 2616 3928 2228 3928 
Q 1841 3928 1675 3570 
Q 1509 3213 1509 2338 
Q 1509 1453 1675 1090 
Q 1841 728 2228 728 
Q 2613 728 2778 1090 
Q 2944 1453 2944 2338 
z
M 4147 2328 
Q 4147 1169 3647 539 
Q 3147 -91 2228 -91 
Q 1306 -91 806 539 
Q 306 1169 306 2328 
Q 306 3491 806 4120 
Q 1306 4750 2228 4750 
Q 3147 4750 3647 4120 
Q 4147 3491 4147 2328 
z
" transform="scale(0.015625)"/>
      <path id="DejaVuSans-Bold-39" d="M 641 103 
L 641 966 
Q 928 831 1190 764 
Q 1453 697 1709 697 
Q 2247 697 2547 995 
Q 2847 1294 2900 1881 
Q 2688 1725 2447 1647 
Q 2206 1569 1925 1569 
Q 1209 1569 770 1986 
Q 331 2403 331 3084 
Q 331 3838 820 4291 
Q 1309 4744 2131 4744 
Q 3044 4744 3544 4128 
Q 4044 3513 4044 2388 
Q 4044 1231 3459 570 
Q 2875 -91 1856 -91 
Q 1528 -91 1228 -42 
Q 928 6 641 103 
z
M 2125 2350 
Q 2441 2350 2600 2554 
Q 2759 2759 2759 3169 
Q 2759 3575 2600 3781 
Q 2441 3988 2125 3988 
Q 1809 3988 1650 3781 
Q 1491 3575 1491 3169 
Q 1491 2759 1650 2554 
Q 1809 2350 2125 2350 
z
" transform="scale(0.015625)"/>
     </defs>
     <use xlink:href="#DejaVuSans-Bold-4f"/>
     <use xlink:href="#DejaVuSans-Bold-4c" x="85.009766"/>
     <use xlink:href="#DejaVuSans-Bold-54" x="132.230469"/>
     <use xlink:href="#DejaVuSans-Bold-20" x="200.443359"/>
     <use xlink:href="#DejaVuSans-Bold-30" x="235.257812"/>
     <use xlink:href="#DejaVuSans-Bold-39" x="304.837891"/>
     <use xlink:href="#DejaVuSans-Bold-30" x="374.417969"/>
    </g>
   </g>
   <g id="text_7">
    <!-- EAN 7896034610017 -->
    <g transform="translate(14.405454 426.19481) scale(0.12 -0.12)">
     <use xlink:href="#DejaVuSans-45"/>
     <use xlink:href="#DejaVuSans-41" x="63.183594"/>
     <use xlink:href="#DejaVuSans-4e" x="131.591797"/>
     <use xlink:href="#DejaVuSans-20" x="206.396484"/>
     <use xlink:href="#DejaVuSans-37" x="238.183594"/>
     <use xlink:href="#DejaVuSans-38" x="301.806641"/>
     <use xlink:href="#DejaVuSans-39" x="365.429688"/>
     <use xlink:href="#DejaVuSans-36" x="429.052734"/>
     <use xlink:href="#DejaVuSans-30" x="492.675781"/>
     <use xlink:href="#DejaVuSans-33" x="556.298828"/>
     <use xlink:href="#DejaVuSans-34" x="619.921875"/>
     <use xlink:href="#DejaVuSans-36" x="683.544922"/>
     <use xlink:href="#DejaVuSans-31" x="747.167969"/>
     <use xlink:href="#DejaVuSans-30" x="810.791016"/>
     <use xlink:href="#DejaVuSans-30" x="874.414062"/>
     <use xlink:href="#DejaVuSans-31" x="938.037109"/>
     <use xlink:href="#DejaVuSans-37" x="1001.660156"/>
    </g>
   </g>
   <g id="text_8">
    <!-- OLT 090 -->
    <g transform="translate(1014.379554 426.19481) scale(0.12 -0.12)">
     <use xlink:href="#DejaVuSans-Bold-4f"/>
     <use xlink:href="#DejaVuSans-Bold-4c" x="85.009766"/>
     <use xlink:href="#DejaVuSans-Bold-54" x="132.230469"/>
     <use xlink:href="#DejaVuSans-Bold-20" x="200.443359"/>
     <use xlink:href="#DejaVuSans-Bold-30" x="235.257812"/>
     <use xlink:href="#DejaVuSans-Bold-39" x="304.837891"/>
     <use xlink:href="#DejaVuSans-Bold-30" x="374.417969"/>
    </g>
   </g>
   <g id="text_9">
    <!-- EAN 7891097104619 -->
    <g transform="translate(14.405454 362.797339) scale(0.12 -0.12)">
     <use xlink:href="#DejaVuSans-45"/>
     <use xlink:href="#DejaVuSans-41" x="63.183594"/>
     <use xlink:href="#DejaVuSans-4e" x="131.591797"/>
     <use xlink:href="#DejaVuSans-20" x="206.396484"/>
     <use xlink:href="#DejaVuSans-37" x="238.183594"/>
     <use xlink:href="#DejaVuSans-38" x="301.806641"/>
     <use xlink:href="#DejaVuSans-39" x="365.429688"/>
     <use xlink:href="#DejaVuSans-31" x="429.052734"/>
     <use xlink:href="#DejaVuSans-30" x="492.675781"/>
     <use xlink:href="#DejaVuSans-39" x="556.298828"/>
     <use xlink:href="#DejaVuSans-37" x="619.921875"/>
     <use xlink:href="#DejaVuSans-31" x="683.544922"/>
     <use xlink:href="#DejaVuSans-30" x="747.167969"/>
     <use xlink:href="#DejaVuSans-34" x="810.791016"/>
     <use xlink:href="#DejaVuSans-36" x="874.414062"/>
     <use xlink:href="#DejaVuSans-31" x="938.037109"/>
     <use xlink:href="#DejaVuSans-39" x="1001.660156"/>
    </g>
   </g>
   <g id="text_10">
    <!-- OLT 045 -->
    <g transform="translate(1014.379554 362.797339) scale(0.12 -0.12)">
     <defs>
      <path id="DejaVuSans-Bold-34" d="M 2356 3675 
L 1038 1722 
L 2356 1722 
L 2356 3675 
z
M 2156 4666 
L 3494 4666 
L 3494 1722 
L 4159 1722 
L 4159 850 
L 3494 850 
L 3494 0 
L 2356 0 
L 2356 850 
L 288 850 
L 288 1881 
L 2156 4666 
z
" transform="scale(0.015625)"/>
      <path id="DejaVuSans-Bold-35" d="M 678 4666 
L 3669 4666 
L 3669 3781 
L 1638 3781 
L 1638 3059 
Q 1775 3097 1914 3117 
Q 2053 3138 2203 3138 
Q 3056 3138 3531 2711 
Q 4006 2284 4006 1522 
Q 4006 766 3489 337 
Q 2972 -91 2053 -91 
Q 1656 -91 1267 -14 
Q 878 63 494 219 
L 494 1166 
Q 875 947 1217 837 
Q 1559 728 1863 728 
Q 2300 728 2551 942 
Q 2803 1156 2803 1522 
Q 2803 1891 2551 2103 
Q 2300 2316 1863 2316 
Q 1603 2316 1309 2248 
Q 1016 2181 678 2041 
L 678 4666 
z
" transform="scale(0.015625)"/>
     </defs>
     <use xlink:href="#DejaVuSans-Bold-4f"/>
     <use xlink:href="#DejaVuSans-Bold-4c" x="85.009766"/>
     <use xlink:href="#DejaVuSans-Bold-54" x="132.230469"/>
     <use xlink:href="#DejaVuSans-Bold-20" x="200.443359"/>
     <use xlink:href="#DejaVuSans-Bold-30" x="235.257812"/>
     <use xlink:href="#DejaVuSans-Bold-34" x="304.837891"/>
     <use xlink:href="#DejaVuSans-Bold-35" x="374.417969"/>
    </g>
   </g>
   <g id="text_11">
    <!-- EAN 7891097101519 -->
    <g transform="translate(14.405454 299.399869) scale(0.12 -0.12)">
     <use xlink:href="#DejaVuSans-45"/>
     <use xlink:href="#DejaVuSans-41" x="63.183594"/>
     <use xlink:href="#DejaVuSans-4e" x="131.591797"/>
     <use xlink:href="#DejaVuSans-20" x="206.396484"/>
     <use xlink:href="#DejaVuSans-37" x="238.183594"/>
     <use xlink:href="#DejaVuSans-38" x="301.806641"/>
     <use xlink:href="#DejaVuSans-39" x="365.429688"/>
     <use xlink:href="#DejaVuSans-31" x="429.052734"/>
     <use xlink:href="#DejaVuSans-30" x="492.675781"/>
     <use xlink:href="#DejaVuSans-39" x="556.298828"/>
     <use xlink:href="#DejaVuSans-37" x="619.921875"/>
     <use xlink:href="#DejaVuSans-31" x="683.544922"/>
     <use xlink:href="#DejaVuSans-30" x="747.167969"/>
     <use xlink:href="#DejaVuSans-31" x="810.791016"/>
     <use xlink:href="#DejaVuSans-35" x="874.414062"/>
     <use xlink:href="#DejaVuSans-31" x="938.037109"/>
     <use xlink:href="#DejaVuSans-39" x="1001.660156"/>
    </g>
   </g>
   <g id="text_12">
    <!-- OLT 030 -->
    <g transform="translate(1014.379554 299.399869) scale(0.12 -0.12)">
     <defs>
      <path id="DejaVuSans-Bold-33" d="M 2981 2516 
Q 3453 2394 3698 2092 
Q 3944 1791 3944 1325 
Q 3944 631 3412 270 
Q 2881 -91 1863 -91 
Q 1503 -91 1142 -33 
Q 781 25 428 141 
L 428 1069 
Q 766 900 1098 814 
Q 1431 728 1753 728 
Q 2231 728 2486 893 
Q 2741 1059 2741 1369 
Q 2741 1688 2480 1852 
Q 2219 2016 1709 2016 
L 1228 2016 
L 1228 2791 
L 1734 2791 
Q 2188 2791 2409 2933 
Q 2631 3075 2631 3366 
Q 2631 3634 2415 3781 
Q 2200 3928 1806 3928 
Q 1516 3928 1219 3862 
Q 922 3797 628 3669 
L 628 4550 
Q 984 4650 1334 4700 
Q 1684 4750 2022 4750 
Q 2931 4750 3382 4451 
Q 3834 4153 3834 3553 
Q 3834 3144 3618 2883 
Q 3403 2622 2981 2516 
z
" transform="scale(0.015625)"/>
     </defs>
     <use xlink:href="#DejaVuSans-Bold-4f"/>
     <use xlink:href="#DejaVuSans-Bold-4c" x="85.009766"/>
     <use xlink:href="#DejaVuSans-Bold-54" x="132.230469"/>
     <use xlink:href="#DejaVuSans-Bold-20" x="200.443359"/>
     <use xlink:href="#DejaVuSans-Bold-30" x="235.257812"/>
     <use xlink:href="#DejaVuSans-Bold-33" x="304.837891"/>
     <use xlink:href="#DejaVuSans-Bold-30" x="374.417969"/>
    </g>
   </g>
   <g id="text_13">
    <!-- EAN 7891097104343 -->
    <g transform="translate(14.405454 236.002398) scale(0.12 -0.12)">
     <use xlink:href="#DejaVuSans-45"/>
     <use xlink:href="#DejaVuSans-41" x="63.183594"/>
     <use xlink:href="#DejaVuSans-4e" x="131.591797"/>
     <use xlink:href="#DejaVuSans-20" x="206.396484"/>
     <use xlink:href="#DejaVuSans-37" x="238.183594"/>
     <use xlink:href="#DejaVuSans-38" x="301.806641"/>
     <use xlink:href="#DejaVuSans-39" x="365.429688"/>
     <use xlink:href="#DejaVuSans-31" x="429.052734"/>
     <use xlink:href="#DejaVuSans-30" x="492.675781"/>
     <use xlink:href="#DejaVuSans-39" x="556.298828"/>
     <use xlink:href="#DejaVuSans-37" x="619.921875"/>
     <use xlink:href="#DejaVuSans-31" x="683.544922"/>
     <use xlink:href="#DejaVuSans-30" x="747.167969"/>
     <use xlink:href="#DejaVuSans-34" x="810.791016"/>
     <use xlink:href="#DejaVuSans-33" x="874.414062"/>
     <use xlink:href="#DejaVuSans-34" x="938.037109"/>
     <use xlink:href="#DejaVuSans-33" x="1001.660156"/>
    </g>
   </g>
   <g id="text_14">
    <!-- OLT 030 -->
    <g transform="translate(1014.379554 236.002398) scale(0.12 -0.12)">
     <use xlink:href="#DejaVuSans-Bold-4f"/>
     <use xlink:href="#DejaVuSans-Bold-4c" x="85.009766"/>
     <use xlink:href="#DejaVuSans-Bold-54" x="132.230469"/>
     <use xlink:href="#DejaVuSans-Bold-20" x="200.443359"/>
     <use xlink:href="#DejaVuSans-Bold-30" x="235.257812"/>
     <use xlink:href="#DejaVuSans-Bold-33" x="304.837891"/>
     <use xlink:href="#DejaVuSans-Bold-30" x="374.417969"/>
    </g>
   </g>
   <g id="text_15">
    <!-- EAN 7891097106989 -->
    <g transform="translate(14.405454 172.604927) scale(0.12 -0.12)">
     <use xlink:href="#DejaVuSans-45"/>
     <use xlink:href="#DejaVuSans-41" x="63.183594"/>
     <use xlink:href="#DejaVuSans-4e" x="131.591797"/>
     <use xlink:href="#DejaVuSans-20" x="206.396484"/>
     <use xlink:href="#DejaVuSans-37" x="238.183594"/>
     <use xlink:href="#DejaVuSans-38" x="301.806641"/>
     <use xlink:href="#DejaVuSans-39" x="365.429688"/>
     <use xlink:href="#DejaVuSans-31" x="429.052734"/>
     <use xlink:href="#DejaVuSans-30" x="492.675781"/>
     <use xlink:href="#DejaVuSans-39" x="556.298828"/>
     <use xlink:href="#DejaVuSans-37" x="619.921875"/>
     <use xlink:href="#DejaVuSans-31" x="683.544922"/>
     <use xlink:href="#DejaVuSans-30" x="747.167969"/>
     <use xlink:href="#DejaVuSans-36" x="810.791016"/>
     <use xlink:href="#DejaVuSans-39" x="874.414062"/>
     <use xlink:href="#DejaVuSans-38" x="938.037109"/>
     <use xlink:href="#DejaVuSans-39" x="1001.660156"/>
    </g>
   </g>
   <g id="text_16">
    <!-- OLT 030 -->
    <g transform="translate(1014.379554 172.604927) scale(0.12 -0.12)">
     <use xlink:href="#DejaVuSans-Bold-4f"/>
     <use xlink:href="#DejaVuSans-Bold-4c" x="85.009766"/>
     <use xlink:href="#DejaVuSans-Bold-54" x="132.230469"/>
     <use xlink:href="#DejaVuSans-Bold-20" x="200.443359"/>
     <use xlink:href="#DejaVuSans-Bold-30" x="235.257812"/>
     <use xlink:href="#DejaVuSans-Bold-33" x="304.837891"/>
     <use xlink:href="#DejaVuSans-Bold-30" x="374.417969"/>
    </g>
   </g>
   <g id="text_17">
    <!-- EAN 7891097105043 -->
    <g transform="translate(14.405454 109.207456) scale(0.12 -0.12)">
     <use xlink:href="#DejaVuSans-45"/>
     <use xlink:href="#DejaVuSans-41" x="63.183594"/>
     <use xlink:href="#DejaVuSans-4e" x="131.591797"/>
     <use xlink:href="#DejaVuSans-20" x="206.396484"/>
     <use xlink:href="#DejaVuSans-37" x="238.183594"/>
     <use xlink:href="#DejaVuSans-38" x="301.806641"/>
     <use xlink:href="#DejaVuSans-39" x="365.429688"/>
     <use xlink:href="#DejaVuSans-31" x="429.052734"/>
     <use xlink:href="#DejaVuSans-30" x="492.675781"/>
     <use xlink:href="#DejaVuSans-39" x="556.298828"/>
     <use xlink:href="#DejaVuSans-37" x="619.921875"/>
     <use xlink:href="#DejaVuSans-31" x="683.544922"/>
     <use xlink:href="#DejaVuSans-30" x="747.167969"/>
     <use xlink:href="#DejaVuSans-35" x="810.791016"/>
     <use xlink:href="#DejaVuSans-30" x="874.414062"/>
     <use xlink:href="#DejaVuSans-34" x="938.037109"/>
     <use xlink:href="#DejaVuSans-33" x="1001.660156"/>
    </g>
   </g>
   <g id="text_18">
    <!-- OLT 015 -->
    <g transform="translate(1014.379554 109.207456) scale(0.12 -0.12)">
     <defs>
      <path id="DejaVuSans-Bold-31" d="M 750 831 
L 1813 831 
L 1813 3847 
L 722 3622 
L 722 4441 
L 1806 4666 
L 2950 4666 
L 2950 831 
L 4013 831 
L 4013 0 
L 750 0 
L 750 831 
z
" transform="scale(0.015625)"/>
     </defs>
     <use xlink:href="#DejaVuSans-Bold-4f"/>
     <use xlink:href="#DejaVuSans-Bold-4c" x="85.009766"/>
     <use xlink:href="#DejaVuSans-Bold-54" x="132.230469"/>
     <use xlink:href="#DejaVuSans-Bold-20" x="200.443359"/>
     <use xlink:href="#DejaVuSans-Bold-30" x="235.257812"/>
     <use xlink:href="#DejaVuSans-Bold-31" x="304.837891"/>
     <use xlink:href="#DejaVuSans-Bold-35" x="374.417969"/>
    </g>
   </g>
   <g id="text_19">
    <!-- EAN 7891097105050 -->
    <g transform="translate(14.405454 45.809985) scale(0.12 -0.12)">
     <use xlink:href="#DejaVuSans-45"/>
     <use xlink:href="#DejaVuSans-41" x="63.183594"/>
     <use xlink:href="#DejaVuSans-4e" x="131.591797"/>
     <use xlink:href="#DejaVuSans-20" x="206.396484"/>
     <use xlink:href="#DejaVuSans-37" x="238.183594"/>
     <use xlink:href="#DejaVuSans-38" x="301.806641"/>
     <use xlink:href="#DejaVuSans-39" x="365.429688"/>
     <use xlink:href="#DejaVuSans-31" x="429.052734"/>
     <use xlink:href="#DejaVuSans-30" x="492.675781"/>
     <use xlink:href="#DejaVuSans-39" x="556.298828"/>
     <use xlink:href="#DejaVuSans-37" x="619.921875"/>
     <use xlink:href="#DejaVuSans-31" x="683.544922"/>
     <use xlink:href="#DejaVuSans-30" x="747.167969"/>
     <use xlink:href="#DejaVuSans-35" x="810.791016"/>
     <use xlink:href="#DejaVuSans-30" x="874.414062"/>
     <use xlink:href="#DejaVuSans-35" x="938.037109"/>
     <use xlink:href="#DejaVuSans-30" x="1001.660156"/>
    </g>
   </g>
   <g id="text_20">
    <!-- OLT 015 -->
    <g transform="translate(1014.379554 45.809985) scale(0.12 -0.12)">
     <use xlink:href="#DejaVuSans-Bold-4f"/>
     <use xlink:href="#DejaVuSans-Bold-4c" x="85.009766"/>
     <use xlink:href="#DejaVuSans-Bold-54" x="132.230469"/>
     <use xlink:href="#DejaVuSans-Bold-20" x="200.443359"/>
     <use xlink:href="#DejaVuSans-Bold-30" x="235.257812"/>
     <use xlink:href="#DejaVuSans-Bold-31" x="304.837891"/>
     <use xlink:href="#DejaVuSans-Bold-35" x="374.417969"/>
    </g>
   </g>
  </g>
 </g>
 <defs>
  <clipPath id="pd9b1350dde">
   <rect x="200.944456" y="10.8" width="790.373793" height="507.179766"/>
  </clipPath>
 </defs>
</svg>
